<svg width="16" height="16" viewBox="0 0 16 16" fill="none" xmlns="http://www.w3.org/2000/svg">
<path d="M12.6667 2H3.33333C2.59333 2 2 2.51429 2 3.14286V11.1429C2 11.7714 2.59333 12.2857 3.33333 12.2857H6L8 14L10 12.2857H12.6667C13.4 12.2857 14 11.7714 14 11.1429V3.14286C14 2.51429 13.4 2 12.6667 2ZM8.66667 11.1429H7.33333V10H8.66667V11.1429ZM10.0467 6.71429L9.44667 7.24C8.96667 7.65714 8.66667 8 8.66667 8.85714H7.33333V8.57143C7.33333 7.94286 7.63333 7.37143 8.11333 6.95429L8.94 6.23429C9.18667 6.02857 9.33333 5.74286 9.33333 5.42857C9.33333 4.8 8.73333 4.28571 8 4.28571C7.26667 4.28571 6.66667 4.8 6.66667 5.42857H5.33333C5.33333 4.16571 6.52667 3.14286 8 3.14286C9.47333 3.14286 10.6667 4.16571 10.6667 5.42857C10.6667 5.93143 10.4267 6.38857 10.0467 6.71429Z" fill="#FF782D"/>
</svg>
