<svg width="21" height="20" viewBox="0 0 21 20" fill="none" xmlns="http://www.w3.org/2000/svg">
<path d="M18.8298 6.30963C18.8184 4.51331 18.0175 3.15028 16.4677 2.24295C15.7858 1.8435 15.0322 1.67067 14.2418 1.67027C11.7469 1.66823 9.25191 1.66211 6.75696 1.6719C4.72627 1.67964 3.02981 2.91917 2.38743 4.85489C2.29286 5.14021 2.25822 5.44591 2.19626 5.74224C2.18525 5.79482 2.17629 5.84781 2.1665 5.90039V14.1022C2.21134 14.3517 2.2358 14.6068 2.30387 14.8498C2.82071 16.6946 4.01948 17.8277 5.88835 18.25C6.05587 18.2879 6.22829 18.3059 6.39826 18.3332H14.6017C14.8516 18.2883 15.1068 18.2639 15.3501 18.1958C17.1929 17.6798 18.3293 16.4831 18.745 14.6162C18.8119 14.3174 18.829 14.0028 18.8298 13.6954C18.8363 11.2335 18.8453 8.77157 18.8298 6.30963ZM10.5073 14.5685C7.99811 14.5828 5.93074 12.5187 5.93196 10.0005C5.93318 7.48476 7.96673 5.44836 10.4927 5.43409C13.0019 5.41983 15.0693 7.48353 15.068 10.0017C15.0668 12.5175 13.0333 14.5539 10.5073 14.5685ZM15.3436 6.54645C14.5895 6.544 13.9553 5.90895 13.9557 5.15651C13.9557 4.40163 14.5879 3.77229 15.3456 3.7731C16.1074 3.77351 16.7315 4.39837 16.7294 5.15896C16.7278 5.91711 16.0968 6.54889 15.3436 6.54645Z" fill="#555555"/>
<path d="M2.1665 14.1025C2.21134 14.352 2.2358 14.6072 2.30387 14.8501C2.82071 16.6949 4.01948 17.8281 5.88835 18.2503C6.05587 18.2882 6.22829 18.3062 6.39826 18.3335C4.98754 18.3335 3.57682 18.3335 2.1665 18.3335C2.1665 16.9232 2.1665 15.5129 2.1665 14.1025Z" fill="white"/>
<path d="M14.0839 10.0091C14.0773 11.9909 12.46 13.5973 10.4847 13.5842C8.50618 13.5712 6.91 11.9652 6.91652 9.99365C6.92305 8.01228 8.54083 6.40509 10.5161 6.41854C12.4946 6.43158 14.0904 8.03755 14.0839 10.0091Z" fill="#555555"/>
<path d="M15.7445 5.15518C15.7453 5.37447 15.5599 5.56116 15.343 5.55993C15.1282 5.55871 14.9387 5.3655 14.9419 5.1511C14.9456 4.94037 15.1266 4.76021 15.3385 4.75736C15.5607 4.7545 15.7437 4.93385 15.7445 5.15518Z" fill="#555555"/>
</svg>
